P1
36
36
000000000000000000000000000000000000
000000000010000000000000010000000000
000000000010000000000000010000000000
000000000010000000000000010000000000
000000000010000000000000010000000000
000000000010000100000100010000000000
000000000010010110011010010000000000
000000000000100111110001010000000000
000000000011000111111000010000000000
000000000011111111111011110000000000
000000000000000111111100001000000000
000000000100001111111100001000000000
000000001000001111111100000100000000
000000000000001111111100000000000000
000000001000011111111110000010000000
000000011111111111111110111110000000
000000000000111111111111000000000000
000000010000111111111111000010000000
000000110000111111111111000011000000
000000000011111111111111010010000000
000000001101111111111111101100000000
000001101001111111111111100100100000
000000100001111111111111100101000000
000000101001111111111111100101000000
000000101000111111111111000101000000
000000001000111111111111000000000000
000000000100111111111111001000000000
000000000100011111111110001000000000
000000000100011111111110001000000000
000000000000001111111100000000000000
000000000010000111111000010000000000
000000000010000011110000010000000000
000000000001000001100000100000000000
000000000001000000000000100000000000
000000000001000000000000100000000000
000000000001000000000000100000000000